<mxfile host="Electron" agent="Mozilla/5.0 (Windows NT 10.0; Win64; x64) AppleWebKit/537.36 (KHTML, like Gecko) draw.io/27.0.9 Chrome/134.0.6998.205 Electron/35.4.0 Safari/537.36" version="27.0.9">
  <diagram name="Page-1" id="myfiJpluYQtMW85FtBdt">
    <mxGraphModel dx="1507" dy="849" grid="1" gridSize="10" guides="1" tooltips="1" connect="1" arrows="1" fold="1" page="1" pageScale="1" pageWidth="1920" pageHeight="1200" math="0" shadow="0">
      <root>
        <mxCell id="0" />
        <mxCell id="1" parent="0" />
        <mxCell id="_HNUTvGTHoGjoOBN61zd-32" value="" style="rounded=1;whiteSpace=wrap;html=1;fillColor=none;dashed=1;" parent="1" vertex="1">
          <mxGeometry x="1240" y="270" width="610" height="580" as="geometry" />
        </mxCell>
        <mxCell id="_HNUTvGTHoGjoOBN61zd-29" value="" style="rounded=1;whiteSpace=wrap;html=1;fillColor=none;dashed=1;movable=1;resizable=1;rotatable=1;deletable=1;editable=1;locked=0;connectable=1;" parent="1" vertex="1">
          <mxGeometry x="440" y="270" width="710" height="580" as="geometry" />
        </mxCell>
        <mxCell id="_HNUTvGTHoGjoOBN61zd-1" value="crm_cust_info" style="swimlane;fontStyle=0;childLayout=stackLayout;horizontal=1;startSize=40;horizontalStack=0;resizeParent=1;resizeParentMax=0;resizeLast=0;collapsible=1;marginBottom=0;whiteSpace=wrap;html=1;fillColor=#dae8fc;strokeColor=#6c8ebf;fontSize=26;rounded=1;" parent="1" vertex="1">
          <mxGeometry x="860" y="640" width="240" height="160" as="geometry">
            <mxRectangle x="280" y="310" width="200" height="40" as="alternateBounds" />
          </mxGeometry>
        </mxCell>
        <mxCell id="_HNUTvGTHoGjoOBN61zd-2" value="cst_id" style="text;strokeColor=none;fillColor=none;align=center;verticalAlign=middle;spacingLeft=4;spacingRight=4;overflow=hidden;points=[[0,0.5],[1,0.5]];portConstraint=eastwest;rotatable=0;whiteSpace=wrap;html=1;fontSize=26;rounded=1;" parent="_HNUTvGTHoGjoOBN61zd-1" vertex="1">
          <mxGeometry y="40" width="240" height="40" as="geometry" />
        </mxCell>
        <mxCell id="_HNUTvGTHoGjoOBN61zd-19" value="cst_key" style="text;strokeColor=none;fillColor=none;align=center;verticalAlign=middle;spacingLeft=4;spacingRight=4;overflow=hidden;points=[[0,0.5],[1,0.5]];portConstraint=eastwest;rotatable=0;whiteSpace=wrap;html=1;fontSize=26;rounded=1;" parent="_HNUTvGTHoGjoOBN61zd-1" vertex="1">
          <mxGeometry y="80" width="240" height="40" as="geometry" />
        </mxCell>
        <mxCell id="1cjNLLkbBH4wm4c0qU7Q-4" value="&lt;font style=&quot;font-size: 20px;&quot;&gt;&lt;b&gt;CUSTOMER&lt;/b&gt;&lt;/font&gt;" style="text;html=1;strokeColor=#36393d;fillColor=#cdeb8b;align=center;verticalAlign=middle;whiteSpace=wrap;overflow=hidden;" parent="_HNUTvGTHoGjoOBN61zd-1" vertex="1">
          <mxGeometry y="120" width="240" height="40" as="geometry" />
        </mxCell>
        <mxCell id="_HNUTvGTHoGjoOBN61zd-5" value="Customer Information" style="rounded=0;whiteSpace=wrap;html=1;fillStyle=hatch;fontSize=15;" parent="1" vertex="1">
          <mxGeometry x="920" y="590" width="120" height="40" as="geometry" />
        </mxCell>
        <mxCell id="_HNUTvGTHoGjoOBN61zd-6" value="crm_prd_info" style="swimlane;fontStyle=0;childLayout=stackLayout;horizontal=1;startSize=40;horizontalStack=0;resizeParent=1;resizeParentMax=0;resizeLast=0;collapsible=1;marginBottom=0;whiteSpace=wrap;html=1;fillColor=#dae8fc;strokeColor=#6c8ebf;fontSize=26;rounded=1;" parent="1" vertex="1">
          <mxGeometry x="860" y="380" width="240" height="120" as="geometry">
            <mxRectangle x="280" y="310" width="200" height="40" as="alternateBounds" />
          </mxGeometry>
        </mxCell>
        <mxCell id="_HNUTvGTHoGjoOBN61zd-7" value="prd_key" style="text;strokeColor=none;fillColor=none;align=center;verticalAlign=middle;spacingLeft=4;spacingRight=4;overflow=hidden;points=[[0,0.5],[1,0.5]];portConstraint=eastwest;rotatable=0;whiteSpace=wrap;html=1;fontSize=26;rounded=1;" parent="_HNUTvGTHoGjoOBN61zd-6" vertex="1">
          <mxGeometry y="40" width="240" height="40" as="geometry" />
        </mxCell>
        <mxCell id="1cjNLLkbBH4wm4c0qU7Q-1" value="&lt;font style=&quot;font-size: 20px;&quot;&gt;&lt;b&gt;PRODUCTS&lt;/b&gt;&lt;/font&gt;" style="text;html=1;strokeColor=#36393d;fillColor=#ffcccc;align=center;verticalAlign=middle;whiteSpace=wrap;overflow=hidden;" parent="_HNUTvGTHoGjoOBN61zd-6" vertex="1">
          <mxGeometry y="80" width="240" height="40" as="geometry" />
        </mxCell>
        <mxCell id="_HNUTvGTHoGjoOBN61zd-8" value="Current &amp;amp; Historical data of products" style="rounded=0;whiteSpace=wrap;html=1;fillStyle=hatch;fontSize=15;" parent="1" vertex="1">
          <mxGeometry x="870" y="330" width="220" height="40" as="geometry" />
        </mxCell>
        <mxCell id="_HNUTvGTHoGjoOBN61zd-9" value="crm_sales_details" style="swimlane;fontStyle=0;childLayout=stackLayout;horizontal=1;startSize=40;horizontalStack=0;resizeParent=1;resizeParentMax=0;resizeLast=0;collapsible=1;marginBottom=0;whiteSpace=wrap;html=1;fillColor=#dae8fc;strokeColor=#6c8ebf;fontSize=26;rounded=1;" parent="1" vertex="1">
          <mxGeometry x="480" y="490" width="240" height="160" as="geometry">
            <mxRectangle x="280" y="310" width="200" height="40" as="alternateBounds" />
          </mxGeometry>
        </mxCell>
        <mxCell id="_HNUTvGTHoGjoOBN61zd-10" value="prd_key" style="text;strokeColor=none;fillColor=none;align=center;verticalAlign=middle;spacingLeft=4;spacingRight=4;overflow=hidden;points=[[0,0.5],[1,0.5]];portConstraint=eastwest;rotatable=0;whiteSpace=wrap;html=1;fontSize=26;rounded=1;" parent="_HNUTvGTHoGjoOBN61zd-9" vertex="1">
          <mxGeometry y="40" width="240" height="40" as="geometry" />
        </mxCell>
        <mxCell id="_HNUTvGTHoGjoOBN61zd-12" value="cst_id" style="text;strokeColor=none;fillColor=none;align=center;verticalAlign=middle;spacingLeft=4;spacingRight=4;overflow=hidden;points=[[0,0.5],[1,0.5]];portConstraint=eastwest;rotatable=0;whiteSpace=wrap;html=1;fontSize=26;rounded=1;" parent="_HNUTvGTHoGjoOBN61zd-9" vertex="1">
          <mxGeometry y="80" width="240" height="40" as="geometry" />
        </mxCell>
        <mxCell id="1cjNLLkbBH4wm4c0qU7Q-7" value="&lt;span style=&quot;font-size: 20px;&quot;&gt;&lt;b&gt;SALES&lt;/b&gt;&lt;/span&gt;" style="text;html=1;strokeColor=#9673a6;fillColor=#e1d5e7;align=center;verticalAlign=middle;whiteSpace=wrap;overflow=hidden;" parent="_HNUTvGTHoGjoOBN61zd-9" vertex="1">
          <mxGeometry y="120" width="240" height="40" as="geometry" />
        </mxCell>
        <mxCell id="_HNUTvGTHoGjoOBN61zd-11" value="Transactional record about Sales &amp;amp; Orders" style="rounded=0;whiteSpace=wrap;html=1;fillStyle=hatch;fontSize=15;" parent="1" vertex="1">
          <mxGeometry x="490" y="440" width="220" height="40" as="geometry" />
        </mxCell>
        <mxCell id="_HNUTvGTHoGjoOBN61zd-13" style="edgeStyle=orthogonalEdgeStyle;rounded=0;orthogonalLoop=1;jettySize=auto;html=1;entryX=0;entryY=0.5;entryDx=0;entryDy=0;" parent="1" source="_HNUTvGTHoGjoOBN61zd-12" target="_HNUTvGTHoGjoOBN61zd-2" edge="1">
          <mxGeometry relative="1" as="geometry" />
        </mxCell>
        <mxCell id="_HNUTvGTHoGjoOBN61zd-14" style="edgeStyle=orthogonalEdgeStyle;rounded=0;orthogonalLoop=1;jettySize=auto;html=1;entryX=0;entryY=0.5;entryDx=0;entryDy=0;" parent="1" source="_HNUTvGTHoGjoOBN61zd-10" target="_HNUTvGTHoGjoOBN61zd-7" edge="1">
          <mxGeometry relative="1" as="geometry" />
        </mxCell>
        <mxCell id="_HNUTvGTHoGjoOBN61zd-15" value="erp_cust_az12" style="swimlane;fontStyle=0;childLayout=stackLayout;horizontal=1;startSize=40;horizontalStack=0;resizeParent=1;resizeParentMax=0;resizeLast=0;collapsible=1;marginBottom=0;whiteSpace=wrap;html=1;fillColor=#fff2cc;strokeColor=#d6b656;fontSize=26;rounded=1;" parent="1" vertex="1">
          <mxGeometry x="1460" y="545" width="240" height="120" as="geometry">
            <mxRectangle x="280" y="310" width="200" height="40" as="alternateBounds" />
          </mxGeometry>
        </mxCell>
        <mxCell id="_HNUTvGTHoGjoOBN61zd-16" value="cid" style="text;strokeColor=none;fillColor=none;align=center;verticalAlign=middle;spacingLeft=4;spacingRight=4;overflow=hidden;points=[[0,0.5],[1,0.5]];portConstraint=eastwest;rotatable=0;whiteSpace=wrap;html=1;fontSize=26;rounded=1;" parent="_HNUTvGTHoGjoOBN61zd-15" vertex="1">
          <mxGeometry y="40" width="240" height="40" as="geometry" />
        </mxCell>
        <mxCell id="1cjNLLkbBH4wm4c0qU7Q-6" value="&lt;font style=&quot;font-size: 20px;&quot;&gt;&lt;b&gt;CUSTOMER&lt;/b&gt;&lt;/font&gt;" style="text;html=1;strokeColor=#36393d;fillColor=#cdeb8b;align=center;verticalAlign=middle;whiteSpace=wrap;overflow=hidden;" parent="_HNUTvGTHoGjoOBN61zd-15" vertex="1">
          <mxGeometry y="80" width="240" height="40" as="geometry" />
        </mxCell>
        <mxCell id="_HNUTvGTHoGjoOBN61zd-17" value="Extra customer Information (Birthdate)" style="rounded=0;whiteSpace=wrap;html=1;fillStyle=hatch;fontSize=15;strokeColor=none;" parent="1" vertex="1">
          <mxGeometry x="1360" y="505" width="450" height="40" as="geometry" />
        </mxCell>
        <mxCell id="_HNUTvGTHoGjoOBN61zd-20" style="edgeStyle=orthogonalEdgeStyle;rounded=0;orthogonalLoop=1;jettySize=auto;html=1;entryX=1;entryY=0.5;entryDx=0;entryDy=0;" parent="1" source="_HNUTvGTHoGjoOBN61zd-16" target="_HNUTvGTHoGjoOBN61zd-19" edge="1">
          <mxGeometry relative="1" as="geometry" />
        </mxCell>
        <mxCell id="_HNUTvGTHoGjoOBN61zd-21" value="erp_loc_a101" style="swimlane;fontStyle=0;childLayout=stackLayout;horizontal=1;startSize=40;horizontalStack=0;resizeParent=1;resizeParentMax=0;resizeLast=0;collapsible=1;marginBottom=0;whiteSpace=wrap;html=1;fillColor=#fff2cc;strokeColor=#d6b656;fontSize=26;rounded=1;" parent="1" vertex="1">
          <mxGeometry x="1460" y="710" width="240" height="120" as="geometry">
            <mxRectangle x="280" y="310" width="200" height="40" as="alternateBounds" />
          </mxGeometry>
        </mxCell>
        <mxCell id="_HNUTvGTHoGjoOBN61zd-22" value="cid" style="text;strokeColor=none;fillColor=none;align=center;verticalAlign=middle;spacingLeft=4;spacingRight=4;overflow=hidden;points=[[0,0.5],[1,0.5]];portConstraint=eastwest;rotatable=0;whiteSpace=wrap;html=1;fontSize=26;rounded=1;" parent="_HNUTvGTHoGjoOBN61zd-21" vertex="1">
          <mxGeometry y="40" width="240" height="40" as="geometry" />
        </mxCell>
        <mxCell id="1cjNLLkbBH4wm4c0qU7Q-5" value="&lt;font style=&quot;font-size: 20px;&quot;&gt;&lt;b&gt;CUSTOMER&lt;/b&gt;&lt;/font&gt;" style="text;html=1;strokeColor=#36393d;fillColor=#cdeb8b;align=center;verticalAlign=middle;whiteSpace=wrap;overflow=hidden;" parent="_HNUTvGTHoGjoOBN61zd-21" vertex="1">
          <mxGeometry y="80" width="240" height="40" as="geometry" />
        </mxCell>
        <mxCell id="_HNUTvGTHoGjoOBN61zd-23" value="Extra customer Information (Country)" style="rounded=0;whiteSpace=wrap;html=1;fillStyle=hatch;fontSize=15;strokeColor=none;" parent="1" vertex="1">
          <mxGeometry x="1380" y="670" width="390" height="40" as="geometry" />
        </mxCell>
        <mxCell id="_HNUTvGTHoGjoOBN61zd-24" style="edgeStyle=orthogonalEdgeStyle;rounded=0;orthogonalLoop=1;jettySize=auto;html=1;entryX=1;entryY=0.5;entryDx=0;entryDy=0;" parent="1" source="_HNUTvGTHoGjoOBN61zd-22" target="_HNUTvGTHoGjoOBN61zd-19" edge="1">
          <mxGeometry relative="1" as="geometry" />
        </mxCell>
        <mxCell id="_HNUTvGTHoGjoOBN61zd-25" value="erp_px_cat_g1v2" style="swimlane;fontStyle=0;childLayout=stackLayout;horizontal=1;startSize=40;horizontalStack=0;resizeParent=1;resizeParentMax=0;resizeLast=0;collapsible=1;marginBottom=0;whiteSpace=wrap;html=1;fillColor=#fff2cc;strokeColor=#d6b656;fontSize=26;rounded=1;" parent="1" vertex="1">
          <mxGeometry x="1460" y="370" width="230" height="120" as="geometry">
            <mxRectangle x="280" y="310" width="200" height="40" as="alternateBounds" />
          </mxGeometry>
        </mxCell>
        <mxCell id="_HNUTvGTHoGjoOBN61zd-26" value="id" style="text;strokeColor=none;fillColor=none;align=center;verticalAlign=middle;spacingLeft=4;spacingRight=4;overflow=hidden;points=[[0,0.5],[1,0.5]];portConstraint=eastwest;rotatable=0;whiteSpace=wrap;html=1;fontSize=26;rounded=1;" parent="_HNUTvGTHoGjoOBN61zd-25" vertex="1">
          <mxGeometry y="40" width="230" height="40" as="geometry" />
        </mxCell>
        <mxCell id="1cjNLLkbBH4wm4c0qU7Q-3" value="&lt;font style=&quot;font-size: 20px;&quot;&gt;&lt;b&gt;PRODUCTS&lt;/b&gt;&lt;/font&gt;" style="text;html=1;strokeColor=#36393d;fillColor=#ffcccc;align=center;verticalAlign=middle;whiteSpace=wrap;overflow=hidden;" parent="_HNUTvGTHoGjoOBN61zd-25" vertex="1">
          <mxGeometry y="80" width="230" height="40" as="geometry" />
        </mxCell>
        <mxCell id="_HNUTvGTHoGjoOBN61zd-27" value="Extra Product Information (Categories)" style="rounded=0;whiteSpace=wrap;html=1;fillStyle=hatch;fontSize=15;strokeColor=none;" parent="1" vertex="1">
          <mxGeometry x="1390" y="320" width="350" height="40" as="geometry" />
        </mxCell>
        <mxCell id="_HNUTvGTHoGjoOBN61zd-28" style="edgeStyle=orthogonalEdgeStyle;rounded=0;orthogonalLoop=1;jettySize=auto;html=1;entryX=1;entryY=0.5;entryDx=0;entryDy=0;" parent="1" source="_HNUTvGTHoGjoOBN61zd-26" target="_HNUTvGTHoGjoOBN61zd-7" edge="1">
          <mxGeometry relative="1" as="geometry" />
        </mxCell>
        <mxCell id="_HNUTvGTHoGjoOBN61zd-30" value="&lt;font&gt;CRM&lt;/font&gt;" style="rounded=1;whiteSpace=wrap;html=1;fontSize=22;fontStyle=1;fillColor=#dae8fc;strokeColor=#6c8ebf;" parent="1" vertex="1">
          <mxGeometry x="660" y="240" width="240" height="60" as="geometry" />
        </mxCell>
        <mxCell id="_HNUTvGTHoGjoOBN61zd-33" value="&lt;font&gt;ERP&lt;/font&gt;" style="rounded=1;whiteSpace=wrap;html=1;fontSize=22;fontStyle=1;fillColor=#fff2cc;strokeColor=#d6b656;" parent="1" vertex="1">
          <mxGeometry x="1420" y="240" width="240" height="60" as="geometry" />
        </mxCell>
        <mxCell id="QcNkKgAsowED2EYapdRJ-1" value="&lt;font style=&quot;font-size: 48px;&quot;&gt;&lt;b&gt;Data Integration&lt;/b&gt;&lt;/font&gt;" style="text;html=1;align=center;verticalAlign=middle;whiteSpace=wrap;rounded=0;" vertex="1" parent="1">
          <mxGeometry x="580" y="100" width="390" height="30" as="geometry" />
        </mxCell>
        <mxCell id="QcNkKgAsowED2EYapdRJ-2" value="&lt;font style=&quot;font-size: 14px;&quot;&gt;&lt;b&gt;Customer Relationship management&lt;/b&gt;&lt;/font&gt;" style="text;html=1;align=center;verticalAlign=middle;whiteSpace=wrap;rounded=0;" vertex="1" parent="1">
          <mxGeometry x="570" y="200" width="410" height="30" as="geometry" />
        </mxCell>
        <mxCell id="QcNkKgAsowED2EYapdRJ-3" value="&lt;font style=&quot;font-size: 14px;&quot;&gt;&lt;b&gt;Enterprise Resource Planning&lt;/b&gt;&lt;/font&gt;" style="text;html=1;align=center;verticalAlign=middle;whiteSpace=wrap;rounded=0;" vertex="1" parent="1">
          <mxGeometry x="1340" y="200" width="410" height="30" as="geometry" />
        </mxCell>
        <mxCell id="QcNkKgAsowED2EYapdRJ-4" value="&lt;font style=&quot;font-size: 18px;&quot;&gt;Relationship between tables&lt;/font&gt;" style="text;html=1;align=center;verticalAlign=middle;whiteSpace=wrap;rounded=0;" vertex="1" parent="1">
          <mxGeometry x="1050" y="100" width="240" height="30" as="geometry" />
        </mxCell>
        <mxCell id="QcNkKgAsowED2EYapdRJ-5" value="" style="edgeStyle=orthogonalEdgeStyle;rounded=0;orthogonalLoop=1;jettySize=auto;html=1;" edge="1" parent="1" source="QcNkKgAsowED2EYapdRJ-1" target="QcNkKgAsowED2EYapdRJ-4">
          <mxGeometry relative="1" as="geometry" />
        </mxCell>
      </root>
    </mxGraphModel>
  </diagram>
</mxfile>
